<svg xmlns="http://www.w3.org/2000/svg" viewBox="0 0 800 500"><rect width="800" height="500" fill="#081220"/><g fill="none" stroke="#0066FF" stroke-opacity=".45" stroke-width="2"><path d="M25 80 C140 20 240 95 360 55 S610 25 760 75"/><path d="M20 130 C160 80 230 150 380 110 S620 85 780 120"/><path d="M40 190 C180 125 250 210 410 170 S610 145 760 190"/><path d="M15 250 C160 205 260 285 430 235 S640 220 790 260"/><path d="M40 325 C190 270 300 350 450 315 S660 280 770 330"/><path d="M80 405 C210 350 330 430 500 390 S680 365 790 420"/></g></svg>